<svg xmlns="http://www.w3.org/2000/svg" viewBox="0 0 32 32">
  <title>LinkedIn</title>
  <g fill="#BBB">
    <path
      d="M24.29,22.94V16.8c0-3.28-1.75-4.81-4.09-4.81A3.55,3.55,0,0,0,17,13.75V12.24H13.43c.05,1,0,10.7,0,10.7H17V17a2.45,2.45,0,0,1,.12-.86,1.94,1.94,0,0,1,1.82-1.3c1.29,0,1.81,1,1.81,2.42v5.72ZM9.69,10.78a1.86,1.86,0,1,0,0-3.7,1.85,1.85,0,1,0-.05,3.7Zm1.77,12.16V12.24H7.91v10.7Z"/>
    <path
      d="M16,2A14,14,0,1,1,2,16,14,14,0,0,1,16,2m0-2A16,16,0,1,0,32,16,16,16,0,0,0,16,0Z"/>
  </g>
</svg>
