<svg xmlns="http://www.w3.org/2000/svg" viewBox="0 0 32 32">
  <title>Twitter</title>
  <g fill="#BBB">
    <path
      d="M18.23,8.89a3.69,3.69,0,0,0-2.49,3.7l0,.63-.63-.08a10.34,10.34,0,0,1-6.06-3l-.84-.84L8,9.94a3.72,3.72,0,0,0,.78,3.81c.51.54.4.61-.48.29-.3-.1-.57-.18-.6-.14a4.7,4.7,0,0,0,.46,1.73,4.13,4.13,0,0,0,1.74,1.64l.63.3H9.83c-.71,0-.74,0-.66.28A3.81,3.81,0,0,0,11.55,20l.79.27-.69.42a7.22,7.22,0,0,1-3.41.95,3.62,3.62,0,0,0-1,.1,9.53,9.53,0,0,0,2.45,1.13A10.72,10.72,0,0,0,18,21.89a11.25,11.25,0,0,0,4.23-5A13.08,13.08,0,0,0,23.1,13c0-.59,0-.67.75-1.38a8.47,8.47,0,0,0,.89-1c.13-.24.11-.24-.53,0-1.09.38-1.24.33-.7-.25A3.74,3.74,0,0,0,24.37,9s-.19,0-.41.14a6.7,6.7,0,0,1-1.12.44l-.68.22-.63-.43a5.19,5.19,0,0,0-1.08-.57A4.27,4.27,0,0,0,18.23,8.89Z"/>
    <path
      d="M16,2A14,14,0,1,1,2,16,14,14,0,0,1,16,2m0-2A16,16,0,1,0,32,16,16,16,0,0,0,16,0Z"/>
  </g>
</svg>
